PathFileType  4	(X/Y/Z) C:\Users\antoi\Documents\MyRepositories\mobilecap\ResultsAnalysis
DataRate	CameraRate	NumFrames	NumMarkers	Units	OrigDataRate	OrigDataStartFrame	OrigNumFrames
100.0	100.0	5	55	mm	100.0	489	781
Frame#	Time	r_knee			r_shank_antsup			r_ankle			r_calc			r_5meta			r_toe			L_knee			L_shank_antsup			L_ankle			L_calc			L_5meta			L_toe			r_mknee			r_mankle			L_mknee			L_mankle			r_sh2			r_sh3			r_sh4			L_sh2			L_sh3			r_thigh1			r_thigh2			r_thigh3			r_thigh4			r_thigh5			L_thigh1			L_thigh2			L_thigh3			L_thigh4			r.ASIS			r.PSIS			L.ASIS			L.PSIS			C7			R_Shoulder			L_Shoulder			R_Sternum			L_Sternum			R_humerus			R_elbow_med			R_elbow_lat			R_forearm			R_wrist_radius			R_wrist_ulna			L_humerus			L_elbow_med			L_elbow_lat			L_forearm			L_wrist_radius			L_wrist_ulna			R_HJC			L_HJC			R_HJC_reg			L_HJC_reg			
		X1	Y1	Z1	X2	Y2	Z2	X3	Y3	Z3	X4	Y4	Z4	X5	Y5	Z5	X6	Y6	Z6	X7	Y7	Z7	X8	Y8	Z8	X9	Y9	Z9	X10	Y10	Z10	X11	Y11	Z11	X12	Y12	Z12	X13	Y13	Z13	X14	Y14	Z14	X15	Y15	Z15	X16	Y16	Z16	X17	Y17	Z17	X18	Y18	Z18	X19	Y19	Z19	X20	Y20	Z20	X21	Y21	Z21	X22	Y22	Z22	X23	Y23	Z23	X24	Y24	Z24	X25	Y25	Z25	X26	Y26	Z26	X27	Y27	Z27	X28	Y28	Z28	X29	Y29	Z29	X30	Y30	Z30	X31	Y31	Z31	X32	Y32	Z32	X33	Y33	Z33	X34	Y34	Z34	X35	Y35	Z35	X36	Y36	Z36	X37	Y37	Z37	X38	Y38	Z38	X39	Y39	Z39	X40	Y40	Z40	X41	Y41	Z41	X42	Y42	Z42	X43	Y43	Z43	X44	Y44	Z44	X45	Y45	Z45	X46	Y46	Z46	X47	Y47	Z47	X48	Y48	Z48	X49	Y49	Z49	X50	Y50	Z50	X51	Y51	Z51	X52	Y52	Z52	X53	Y53	Z53	X54	Y54	Z54	X55	Y55	Z55	

489	4.88000000	-209.89625	553.31293	-451.16272	-186.36512	429.32664	-457.49571	-294.05330	100.85548	-448.15959	-360.46060	66.48570	-490.52462	-159.54490	36.66763	-403.87755	-123.87411	58.65571	-478.29708	-249.03491	543.78431	-804.44074	-216.45435	440.58475	-791.66975	-300.67192	97.87491	-799.21879	-361.66306	66.50094	-751.37913	-156.18048	35.76190	-828.91683	-125.42595	58.73566	-757.48462	-216.22080	534.16741	-579.93239	-266.80845	111.84867	-542.95285	-237.56895	534.96002	-673.24822	-275.27332	113.03111	-705.88656	-193.78192	314.31446	-474.75800	-246.97057	424.65180	-408.43818	-245.20668	307.34430	-407.26144	-296.07676	443.52411	-833.59072	-277.53922	324.50553	-850.27582	-94.09430	782.70992	-475.05557	-105.85392	670.92646	-487.30758	-139.13514	646.75751	-432.78200	-177.88744	781.41888	-400.77355	-188.74928	664.32029	-419.99945	-137.16607	791.91387	-818.94739	-146.79381	656.02757	-808.10377	-246.28689	796.86921	-850.12136	-255.87519	658.46812	-831.11211	-116.07543	1055.63114	-485.65604	-320.41414	1088.29966	-573.26550	-112.60177	1047.20273	-752.70316	-321.62464	1085.89778	-672.26342	-309.41328	1575.70080	-637.18310	-228.91773	1519.33632	-443.00326	-211.51149	1535.45483	-810.05681	-161.06605	1525.12500	-607.10415	-159.85596	1519.67512	-650.92771	-200.58714	1350.40530	-371.58700	-261.02942	1124.99600	-405.80621	-237.25685	1149.63531	-331.39318	-122.63280	1018.09590	-320.90971	-75.49570	908.96621	-309.34465	-106.91163	888.33701	-291.05637	-185.67488	1359.58206	-890.02898	-265.20456	1148.54827	-860.67732	-221.87496	1163.00856	-925.44377	-116.88844	1035.46823	-893.55325	-74.36200	926.22347	-911.91047	-108.88841	911.01356	-938.28514	-198.30984	975.19953	-520.55483	-193.66862	958.24215	-733.22124	-187.90703	974.18401	-520.89405	-190.06274	969.90673	-697.18271	
490	4.89000000	-209.86769	553.35968	-451.09940	-186.37560	429.31694	-457.51793	-294.05988	100.86703	-448.16606	-360.59033	66.61353	-490.59715	-159.54713	36.70473	-403.89195	-123.88441	58.62870	-478.29098	-249.06162	543.77975	-804.43175	-216.47351	440.58391	-791.66044	-300.67144	97.87874	-799.22358	-361.61441	66.46686	-751.20927	-156.18201	35.75810	-828.91823	-125.45371	58.73803	-757.48873	-216.24119	534.16930	-579.93630	-266.80598	111.85002	-542.95361	-237.56682	534.97355	-673.25184	-275.25464	113.05934	-705.87428	-193.79755	314.28188	-474.80088	-246.89355	424.65333	-408.45173	-245.20715	307.28102	-407.27392	-296.09868	443.54793	-833.61724	-277.53252	324.50075	-850.31064	-94.12396	782.76488	-475.04596	-105.85643	670.95255	-487.35925	-139.14322	646.76665	-432.82193	-177.91720	781.41747	-400.77628	-188.76558	664.35582	-419.99518	-137.21305	791.92309	-818.95970	-146.86492	656.01776	-808.04655	-246.33882	796.89006	-850.15480	-255.93388	658.45787	-831.13197	-116.13642	1055.68329	-485.58538	-320.50433	1088.29732	-573.32882	-112.67236	1047.21355	-752.73314	-321.67581	1085.90406	-672.29620	-309.47220	1575.71595	-637.20756	-228.97919	1519.30795	-443.01996	-211.51281	1535.45551	-810.03882	-161.06456	1525.10443	-607.05929	-159.86457	1519.66687	-650.91172	-200.58920	1350.36008	-371.62623	-261.02510	1124.97340	-405.81696	-237.21529	1149.58697	-331.52313	-122.57180	1018.08403	-320.98636	-75.45934	908.93455	-309.42079	-106.87515	888.33216	-291.15478	-185.70159	1359.56975	-889.97754	-265.27197	1148.55306	-860.69428	-221.93887	1163.01176	-925.44073	-117.00105	1035.44945	-893.54703	-74.48949	926.19582	-911.84210	-109.01248	910.99024	-938.28545	-198.38142	975.23333	-520.55204	-193.70380	958.24597	-733.21527	-187.98921	974.15295	-520.87405	-190.07676	969.88825	-697.23099	
491	4.90000000	-209.87101	553.44607	-451.04136	-186.35965	429.33559	-457.53728	-294.05751	100.90171	-448.17947	-360.77767	66.78852	-490.69422	-159.53221	36.72822	-403.88940	-123.85139	58.65600	-478.27517	-249.09188	543.77359	-804.42807	-216.49204	440.58308	-791.66779	-300.66952	97.87835	-799.22967	-361.61964	66.47950	-751.14931	-156.18211	35.75186	-828.92293	-125.45348	58.75179	-757.49528	-216.30375	534.21040	-579.96345	-266.80623	111.84685	-542.95323	-237.56770	534.97146	-673.25150	-275.22188	113.07786	-705.86048	-193.80792	314.29577	-474.83637	-246.76197	424.75787	-408.43374	-245.19280	307.27044	-407.25321	-296.13024	443.56060	-833.63425	-277.54661	324.46767	-850.30765	-94.10253	782.81144	-475.10263	-105.85809	670.98739	-487.42325	-139.15986	646.79952	-432.87123	-177.92534	781.45830	-400.78020	-188.74062	664.45322	-419.95658	-137.23927	791.93761	-818.96045	-146.94010	656.02293	-808.00639	-246.38386	796.90519	-850.17032	-255.98107	658.43996	-831.14103	-116.17031	1055.69494	-485.61212	-320.62999	1088.29930	-573.37729	-112.71802	1047.19972	-752.74647	-321.70877	1085.97902	-672.35380	-309.51406	1575.73046	-637.22382	-229.02965	1519.27169	-443.03572	-211.51168	1535.45066	-810.01746	-161.07732	1525.09846	-607.04273	-159.87978	1519.64469	-650.89575	-200.56405	1350.36882	-371.63812	-261.07690	1124.95985	-405.87385	-237.19726	1149.55726	-331.66609	-122.53958	1018.06989	-321.04414	-75.43962	908.91761	-309.49512	-106.83807	888.30654	-291.33658	-185.73145	1359.58268	-889.95910	-265.31749	1148.57256	-860.68035	-222.00710	1163.01232	-925.42848	-117.12730	1035.43263	-893.52503	-74.61479	926.15478	-911.80952	-109.13537	910.96136	-938.32340	-198.46764	975.24914	-520.58613	-193.76756	958.26069	-733.24878	-188.09044	974.04649	-521.02396	-190.01257	969.91215	-697.37748	
492	4.91000000	-209.92060	553.48693	-451.05893	-186.35209	429.35535	-457.53814	-294.03761	100.92985	-448.17307	-360.73800	66.78620	-490.68007	-159.52006	36.72408	-403.88446	-123.79496	58.70513	-478.26218	-249.11906	543.76643	-804.43067	-216.50733	440.58271	-791.67908	-300.67110	97.87787	-799.23159	-361.66270	66.52697	-751.28222	-156.18402	35.74583	-828.92524	-125.43256	58.75679	-757.50125	-216.39490	534.29401	-580.01429	-266.80544	111.84185	-542.95360	-237.56825	534.97271	-673.25070	-275.21076	113.07667	-705.85748	-193.81322	314.34626	-474.82827	-246.74187	424.81358	-408.44627	-245.15008	307.30270	-407.28294	-296.16097	443.57059	-833.65554	-277.58405	324.49375	-850.31418	-94.06865	782.82263	-475.20133	-105.88199	671.00471	-487.46350	-139.16694	646.82405	-432.87401	-177.90492	781.53664	-400.74408	-188.68057	664.54950	-419.92250	-137.26121	791.94363	-818.95254	-147.00129	656.04444	-808.02177	-246.41876	796.90745	-850.17133	-256.03092	658.45449	-831.17343	-116.20847	1055.71741	-485.64294	-320.64730	1088.36142	-573.38701	-112.76276	1047.18319	-752.74378	-321.73301	1086.02232	-672.35818	-309.51897	1575.74718	-637.20601	-229.03769	1519.27783	-442.97110	-211.51688	1535.45055	-809.99296	-161.09433	1525.10532	-607.03356	-159.89425	1519.62054	-650.85239	-200.55341	1350.37410	-371.64560	-261.17763	1124.96373	-405.95712	-237.19973	1149.50589	-331.73569	-122.57234	1018.00969	-321.11237	-75.42456	908.88778	-309.57957	-106.79855	888.26361	-291.53001	-185.77844	1359.61079	-889.93303	-265.37702	1148.59843	-860.66132	-222.07397	1163.02831	-925.38984	-117.24056	1035.41294	-893.53800	-74.74369	926.09546	-911.77365	-109.24955	910.94859	-938.33999	-198.51844	975.28706	-520.58345	-193.83123	958.26576	-733.24375	-188.14368	974.09884	-521.02931	-190.07798	969.93128	-697.36046	
493	4.92000000	-209.96107	553.45484	-451.10751	-186.37303	429.35827	-457.53989	-294.01765	100.95928	-448.16394	-360.56750	66.65438	-490.60880	-159.52341	36.72838	-403.88871	-123.78448	58.71354	-478.27179	-249.13991	543.76291	-804.43196	-216.51807	440.58016	-791.67500	-300.67225	97.88469	-799.23222	-361.67071	66.52677	-751.33343	-156.18652	35.74537	-828.92833	-125.41274	58.76110	-757.52065	-216.45012	534.34733	-580.04605	-266.80647	111.83953	-542.95560	-237.56602	534.97878	-673.25350	-275.21641	113.07983	-705.87143	-193.82235	314.38710	-474.80612	-246.79465	424.79972	-408.50174	-245.13579	307.31823	-407.35135	-296.17889	443.56990	-833.66085	-277.60349	324.52287	-850.30998	-94.07145	782.81395	-475.24154	-105.91374	671.00522	-487.48006	-139.17049	646.83145	-432.86174	-177.91891	781.58615	-400.72861	-188.65893	664.51877	-419.94527	-137.29430	791.93272	-818.95742	-147.03423	656.04898	-808.02671	-246.44823	796.90694	-850.17999	-256.09014	658.45832	-831.20685	-116.24218	1055.75748	-485.64007	-320.64932	1088.47539	-573.29220	-112.80624	1047.17876	-752.74900	-321.77514	1086.01417	-672.34818	-309.52698	1575.77064	-637.19180	-229.01643	1519.31116	-442.89475	-211.52716	1535.46390	-809.96753	-161.11109	1525.10814	-607.00767	-159.89043	1519.60877	-650.77378	-200.57365	1350.32998	-371.65412	-261.24350	1124.96914	-406.00071	-237.19830	1149.45312	-331.74741	-122.56213	1017.95391	-321.21760	-75.37848	908.86109	-309.68524	-106.72127	888.22405	-291.68676	-185.81728	1359.59812	-889.86574	-265.44563	1148.62303	-860.64204	-222.12880	1163.04213	-925.36312	-117.34492	1035.38923	-893.59676	-74.86618	926.05203	-911.71066	-109.35184	910.97697	-938.25451	-198.54612	975.34601	-520.53627	-193.90286	958.26669	-733.19288	-188.21325	974.30012	-520.90557	-190.21754	969.91905	-697.23687	
